<?xml version="1.0" encoding="UTF-8" standalone="no"?>
<!-- Created with Inkscape (http://www.inkscape.org/) -->

<svg
   xmlns:dc="http://purl.org/dc/elements/1.1/"
   xmlns:cc="http://creativecommons.org/ns#"
   xmlns:rdf="http://www.w3.org/1999/02/22-rdf-syntax-ns#"
   xmlns:svg="http://www.w3.org/2000/svg"
   xmlns="http://www.w3.org/2000/svg"
   xmlns:sodipodi="http://sodipodi.sourceforge.net/DTD/sodipodi-0.dtd"
   xmlns:inkscape="http://www.inkscape.org/namespaces/inkscape"
   width="104.24583mm"
   height="84.666664mm"
   viewBox="0 0 369.37501 299.99999"
   id="svg4399"
   version="1.1"
   inkscape:version="0.91 r13725"
   sodipodi:docname="twitter.svg">
  <defs
     id="defs4401" />
  <sodipodi:namedview
     id="base"
     pagecolor="#ffffff"
     bordercolor="#666666"
     borderopacity="1.0"
     inkscape:pageopacity="0.0"
     inkscape:pageshadow="2"
     inkscape:zoom="0.35"
     inkscape:cx="312.30873"
     inkscape:cy="276.87307"
     inkscape:document-units="px"
     inkscape:current-layer="layer1"
     showgrid="false"
     fit-margin-top="0"
     fit-margin-left="0"
     fit-margin-right="0"
     fit-margin-bottom="0"
     showborder="false"
     inkscape:window-width="1680"
     inkscape:window-height="986"
     inkscape:window-x="0"
     inkscape:window-y="27"
     inkscape:window-maximized="1" />
  <metadata
     id="metadata4404">
    <rdf:RDF>
      <cc:Work
         rdf:about="">
        <dc:format>image/svg+xml</dc:format>
        <dc:type
           rdf:resource="http://purl.org/dc/dcmitype/StillImage" />
        <dc:title></dc:title>
      </cc:Work>
    </rdf:RDF>
  </metadata>
  <g
     inkscape:label="Layer 1"
     inkscape:groupmode="layer"
     id="layer1"
     transform="translate(-68.405559,-509.23528)">
    <g
       transform="matrix(0.87966659,0,0,0.87966659,-1240.9903,-1475.0297)"
       style="font-style:normal;font-weight:normal;font-size:477.45358276px;line-height:125%;font-family:sans-serif;letter-spacing:0px;word-spacing:0px;fill:#5ea9dd;fill-opacity:1;stroke:none;stroke-width:1px;stroke-linecap:butt;stroke-linejoin:miter;stroke-opacity:1"
       id="text4070-8-3">
      <path
         inkscape:connector-curvature="0"
         d="m 1908.4172,2296.1995 c -15.4533,6.6609 -32.2388,11.4568 -49.5571,13.3218 17.8512,-10.6574 31.4395,-27.4429 37.8339,-47.4256 -16.519,9.8581 -35.1695,17.0519 -54.6194,20.782 -15.7197,-16.7855 -38.1004,-27.1765 -62.8789,-27.1765 -47.6921,0 -86.0589,38.6333 -86.0589,86.0589 0,6.6609 0.7993,13.3218 2.1315,19.7163 -71.4049,-3.7301 -135.0831,-37.834 -177.4465,-90.0554 -7.4602,12.7889 -11.7232,27.4429 -11.7232,43.4291 0,29.8408 15.1869,56.218 38.3668,71.6713 -14.1211,-0.5329 -27.4429,-4.5294 -38.8996,-10.9239 0,0.2664 0,0.7993 0,1.0657 0,41.8305 29.5744,76.4672 69.0069,84.4603 -7.1938,1.8651 -14.9204,2.9308 -22.6471,2.9308 -5.5951,0 -10.9238,-0.5329 -16.2526,-1.3322 10.9239,34.1038 42.6298,58.8824 80.4638,59.6817 -29.5745,23.18 -66.6091,36.7682 -106.8409,36.7682 -7.1938,0 -13.8547,-0.2664 -20.7821,-1.0657 38.1004,24.5121 83.3946,38.6332 132.1524,38.6332 158.263,0 244.8548,-131.0866 244.8548,-244.8548 0,-3.7301 0,-7.4602 -0.2664,-11.1903 16.7854,-12.2561 31.4394,-27.443 43.1626,-44.4949 z"
         id="path4175-8"
         style="fill:#5ea9dd;fill-opacity:1" />
    </g>
  </g>
</svg>
