<?xml version="1.0" encoding="UTF-8" standalone="no"?>
<!-- Created with Inkscape (http://www.inkscape.org/) -->

<svg
   xmlns:dc="http://purl.org/dc/elements/1.1/"
   xmlns:cc="http://creativecommons.org/ns#"
   xmlns:rdf="http://www.w3.org/1999/02/22-rdf-syntax-ns#"
   xmlns:svg="http://www.w3.org/2000/svg"
   xmlns="http://www.w3.org/2000/svg"
   xmlns:sodipodi="http://sodipodi.sourceforge.net/DTD/sodipodi-0.dtd"
   xmlns:inkscape="http://www.inkscape.org/namespaces/inkscape"
   width="66.529053mm"
   height="84.666664mm"
   viewBox="0 0 235.73286 299.99999"
   id="svg4435"
   version="1.1"
   inkscape:version="0.91 r13725"
   sodipodi:docname="youtube.svg">
  <defs
     id="defs4437" />
  <sodipodi:namedview
     id="base"
     pagecolor="#ffffff"
     bordercolor="#666666"
     borderopacity="1.0"
     inkscape:pageopacity="0.0"
     inkscape:pageshadow="2"
     inkscape:zoom="0.35"
     inkscape:cx="216.88238"
     inkscape:cy="65.444474"
     inkscape:document-units="px"
     inkscape:current-layer="layer1"
     showgrid="false"
     fit-margin-top="0"
     fit-margin-left="0"
     fit-margin-right="0"
     fit-margin-bottom="0"
     showborder="false"
     inkscape:window-width="1680"
     inkscape:window-height="986"
     inkscape:window-x="0"
     inkscape:window-y="27"
     inkscape:window-maximized="1" />
  <metadata
     id="metadata4440">
    <rdf:RDF>
      <cc:Work
         rdf:about="">
        <dc:format>image/svg+xml</dc:format>
        <dc:type
           rdf:resource="http://purl.org/dc/dcmitype/StillImage" />
        <dc:title></dc:title>
      </cc:Work>
    </rdf:RDF>
  </metadata>
  <g
     inkscape:label="Layer 1"
     inkscape:groupmode="layer"
     id="layer1"
     transform="translate(-163.83191,-297.80669)">
    <g
       style="font-style:normal;font-weight:normal;font-size:179.73789978px;line-height:125%;font-family:sans-serif;letter-spacing:0px;word-spacing:0px;fill:#f2f2f2;fill-opacity:1;stroke:none;stroke-width:1px;stroke-linecap:butt;stroke-linejoin:miter;stroke-opacity:1"
       id="g4608"
       transform="matrix(0.72802152,0,0,0.72802152,-1330.4407,-1937.5872)">
      <g
         id="text4070-6-1"
         style="font-style:normal;font-weight:normal;font-size:477.45358276px;line-height:125%;font-family:sans-serif;letter-spacing:0px;word-spacing:0px;fill:#000000;fill-opacity:1;stroke:none;stroke-width:1px;stroke-linecap:butt;stroke-linejoin:miter;stroke-opacity:1"
         transform="matrix(0.82003923,0,0,0.82003923,365.37641,1316.6102)">
        <path
           sodipodi:nodetypes="ssccssssssccscccccccccccscsccscscccccscsccccccscsssccscsscscsccsscccssccsccsccsccs"
           style="fill:#dd2c28;fill-opacity:1"
           id="path4172-9"
           d="m 2308.8992,2495.2944 c 0,-11.7232 -3.4637,-17.8512 -10.391,-17.8512 -3.9966,0 -7.9931,1.865 -11.9896,5.8616 l 0,80.1972 c 3.9965,3.9966 7.993,5.8616 11.9896,5.8616 6.9273,0 10.391,-5.8616 10.391,-17.8512 z m 90.0554,0.2664 c 0,-11.9896 -3.9965,-18.1176 -11.9896,-18.1176 -7.9931,0 -11.9896,6.128 -11.9896,18.1176 l 0,12.2561 23.9792,0 z m -257.3773,-58.0831 0,151.6022 -26.6436,0 0,-151.6022 -27.9758,0 0,-25.0449 83.1281,0 0,25.0449 z m 76.7336,151.6022 0,-14.3875 c -9.5917,10.9238 -18.6505,16.2526 -27.1765,16.2526 -7.7266,0 -13.3218,-3.1973 -15.4533,-9.8582 -1.3322,-3.9965 -2.1315,-10.1245 -2.1315,-19.4498 l 0,-104.1765 23.7129,0 0,96.9827 c 0,5.5952 0,8.526 0.2664,9.3253 0.5329,3.7301 2.3979,5.5951 5.5951,5.5951 4.7959,0 9.8582,-3.7301 15.1869,-11.1903 l 0,-100.7128 23.7128,0 0,131.6194 z m 114.3011,-39.4325 c 0,12.256 -0.5329,21.0484 -2.3979,26.6436 -2.9308,9.5917 -9.5917,14.654 -18.917,14.654 -8.5259,0 -16.7855,-4.7959 -24.7785,-14.654 l 0,12.7889 -23.7129,0 0,-176.6471 23.7129,0 0,57.8166 c 7.7266,-9.5917 15.9861,-14.3876 24.7785,-14.3876 9.3253,0 15.9862,5.0623 18.917,14.9205 1.865,5.3287 2.3979,14.1211 2.3979,26.3771 z m 90.0554,-2.6644 c 0,7.7267 0,13.0554 -0.5328,15.4533 -0.5329,5.3287 -2.6644,10.1246 -5.5952,14.3876 -6.3945,9.3252 -16.2526,14.1211 -28.7751,14.1211 -12.5225,0 -21.8478,-4.5294 -28.7751,-13.5883 -5.0623,-6.3944 -7.7267,-16.7854 -7.7267,-30.9066 l 0,-46.0934 c 0,-14.1211 2.398,-24.2457 7.4603,-30.9066 6.9273,-9.0588 16.2526,-13.5883 28.5086,-13.5883 11.9897,0 21.3149,4.5295 28.2423,13.5883 4.7958,6.6609 7.1937,16.7855 7.1937,30.9066 l 0,27.4429 -47.692,0 0,23.1799 c 0,12.2561 3.9965,18.3841 12.256,18.3841 5.8616,0 9.3253,-3.1972 10.6575,-9.5917 0.2664,-1.3321 0.5328,-6.6609 0.5328,-16.2526 l 24.2457,0 z m 29.5744,-43.1626 c 0,-30.9066 0,-63.4119 -6.9273,-93.2527 -4.7958,-21.0485 -22.1142,-36.5018 -42.6298,-38.8997 -49.0242,-5.3287 -98.5814,-5.3287 -147.872,-5.3287 -49.2907,0 -98.8479,0 -147.6057,5.3287 -20.782,2.3979 -37.8339,17.8512 -42.8962,38.8997 -6.6609,29.8408 -6.9273,62.3461 -6.9273,93.2527 0,30.6401 0,63.4118 6.9273,93.2526 4.7959,21.0485 22.1142,36.5018 42.6298,38.6332 49.0242,5.5952 98.5814,5.5952 147.8721,5.5952 49.2906,0 98.8478,0 147.872,-5.5952 20.5156,-2.1314 37.5675,-17.5847 42.6298,-38.6332 6.6609,-29.8408 6.9273,-62.6125 6.9273,-93.2526 z"
           inkscape:connector-curvature="0" />
      </g>
      <g
         id="text4070-6-1-9"
         style="font-style:normal;font-weight:normal;font-size:477.45358276px;line-height:125%;font-family:sans-serif;letter-spacing:0px;word-spacing:0px;fill:#000000;fill-opacity:1;stroke:none;stroke-width:1px;stroke-linecap:butt;stroke-linejoin:miter;stroke-opacity:1"
         transform="matrix(0.82003923,0,0,0.82003923,339.09486,1861.7055)">
        <path
           sodipodi:nodetypes="ssssssscccccccccccscscsscscsscccscsccscscccc"
           style="fill:#000000;fill-opacity:1"
           id="path4172-9-4"
           d="m 2292.8877,1613.9545 c 0,12.2561 -3.4637,18.6505 -11.4568,18.6505 -7.7266,0 -11.4568,-6.3944 -11.4568,-18.6505 l 0,-55.9516 c 0,-12.2561 3.7302,-18.3841 11.4568,-18.3841 7.9931,0 11.4568,6.128 11.4568,18.3841 z m -74.3357,-139.879 -18.1177,70.0727 -18.917,-70.0727 -28.2422,0 c 5.5952,16.5191 11.4568,33.3045 17.3184,49.8236 8.5259,24.7785 13.8546,43.4291 16.2526,56.4844 l 0,72.2042 26.6436,0 0,-72.2042 32.2388,-106.308 z m 98.5813,88.7233 c 0,-14.1212 -2.3979,-24.5122 -7.4602,-31.1731 -6.6609,-9.0588 -15.9861,-13.5882 -28.2422,-13.5882 -11.9896,0 -21.3149,4.5294 -27.9758,13.5882 -5.0623,6.6609 -7.4602,17.0519 -7.4602,31.1731 l 0,46.6263 c 0,14.1211 2.3979,24.5121 7.4602,31.4395 6.6609,9.0588 15.9862,13.5882 27.9758,13.5882 12.2561,0 21.5813,-4.5294 28.2422,-13.5882 5.0623,-6.661 7.4602,-17.3184 7.4602,-31.4395 z m 89.2562,-43.1627 -24.2457,0 0,101.5122 c -5.3288,7.7266 -10.391,11.4567 -15.1869,11.4567 -3.1972,0 -5.0623,-2.1315 -5.5952,-5.8616 -0.2664,-0.5328 -0.2664,-3.7301 -0.2664,-9.3252 l 0,-97.7821 -24.2457,0 0,104.9758 c 0,9.5917 0.7993,15.9862 2.1315,19.9828 2.3979,6.6609 7.9931,9.8581 15.7197,9.8581 8.7924,0 17.8513,-5.3287 27.443,-16.519 l 0,14.6539 24.2457,0 z"
           inkscape:connector-curvature="0" />
      </g>
    </g>
  </g>
</svg>
