<?xml version="1.0" encoding="UTF-8" standalone="no"?>
<!-- Created with Inkscape (http://www.inkscape.org/) -->

<svg
   xmlns:dc="http://purl.org/dc/elements/1.1/"
   xmlns:cc="http://creativecommons.org/ns#"
   xmlns:rdf="http://www.w3.org/1999/02/22-rdf-syntax-ns#"
   xmlns:svg="http://www.w3.org/2000/svg"
   xmlns="http://www.w3.org/2000/svg"
   xmlns:sodipodi="http://sodipodi.sourceforge.net/DTD/sodipodi-0.dtd"
   xmlns:inkscape="http://www.inkscape.org/namespaces/inkscape"
   width="49.106667mm"
   height="49.106667mm"
   viewBox="0 0 174 174"
   id="svg3997"
   version="1.1"
   inkscape:version="0.91 r13725"
   sodipodi:docname="menu.svg">
  <defs
     id="defs3999" />
  <sodipodi:namedview
     id="base"
     pagecolor="#ffffff"
     bordercolor="#666666"
     borderopacity="1.0"
     inkscape:pageopacity="0.0"
     inkscape:pageshadow="2"
     inkscape:zoom="0.35"
     inkscape:cx="64.85714"
     inkscape:cy="-104.42854"
     inkscape:document-units="px"
     inkscape:current-layer="layer1"
     showgrid="false"
     fit-margin-top="0"
     fit-margin-left="0"
     fit-margin-right="0"
     fit-margin-bottom="0"
     showborder="false"
     inkscape:window-width="1680"
     inkscape:window-height="986"
     inkscape:window-x="0"
     inkscape:window-y="27"
     inkscape:window-maximized="1" />
  <metadata
     id="metadata4002">
    <rdf:RDF>
      <cc:Work
         rdf:about="">
        <dc:format>image/svg+xml</dc:format>
        <dc:type
           rdf:resource="http://purl.org/dc/dcmitype/StillImage" />
        <dc:title></dc:title>
      </cc:Work>
    </rdf:RDF>
  </metadata>
  <g
     inkscape:label="Layer 1"
     inkscape:groupmode="layer"
     id="layer1"
     transform="translate(-310.14286,-253.93367)">
    <g
       id="g3960"
       transform="matrix(0.96666667,0,0,0.96666667,-249.28745,-1237.886)">
      <g
         id="g3955">
        <rect
           id="rect3938-2"
           width="180"
           height="180"
           x="578.72101"
           y="1543.2617"
           style="opacity:0" />
        <g
           style="font-style:normal;font-weight:normal;font-size:179.73789978px;line-height:125%;font-family:sans-serif;letter-spacing:0px;word-spacing:0px;fill:#f2f2f2;fill-opacity:1;stroke:none;stroke-width:1px;stroke-linecap:butt;stroke-linejoin:miter;stroke-opacity:1"
           id="text3916-8">
          <path
             inkscape:connector-curvature="0"
             d="m 745.86384,1678.2616 c 0,-3.5156 -2.91295,-6.4285 -6.42857,-6.4285 l -141.42857,0 c -3.51563,0 -6.42858,2.9129 -6.42858,6.4285 l 0,12.8572 c 0,3.5156 2.91295,6.4286 6.42858,6.4286 l 141.42857,0 c 3.51562,0 6.42857,-2.913 6.42857,-6.4286 l 0,-12.8572 z m 0,-51.4285 c 0,-3.5156 -2.91295,-6.4286 -6.42857,-6.4286 l -141.42857,0 c -3.51563,0 -6.42858,2.913 -6.42858,6.4286 l 0,12.8571 c 0,3.5156 2.91295,6.4286 6.42858,6.4286 l 141.42857,0 c 3.51562,0 6.42857,-2.913 6.42857,-6.4286 l 0,-12.8571 z m 0,-51.4286 c 0,-3.5156 -2.91295,-6.4286 -6.42857,-6.4286 l -141.42857,0 c -3.51563,0 -6.42858,2.913 -6.42858,6.4286 l 0,12.8571 c 0,3.5157 2.91295,6.4286 6.42858,6.4286 l 141.42857,0 c 3.51562,0 6.42857,-2.9129 6.42857,-6.4286 l 0,-12.8571 z"
             style="font-style:normal;font-variant:normal;font-weight:normal;font-stretch:normal;font-size:180px;font-family:FontAwesome;-inkscape-font-specification:FontAwesome;fill:#f2f2f2;fill-opacity:1"
             id="path3982" />
        </g>
      </g>
    </g>
  </g>
</svg>
