<?xml version="1.0" encoding="UTF-8" standalone="no"?>
<!-- Created with Inkscape (http://www.inkscape.org/) -->

<svg
   xmlns:dc="http://purl.org/dc/elements/1.1/"
   xmlns:cc="http://creativecommons.org/ns#"
   xmlns:rdf="http://www.w3.org/1999/02/22-rdf-syntax-ns#"
   xmlns:svg="http://www.w3.org/2000/svg"
   xmlns="http://www.w3.org/2000/svg"
   xmlns:sodipodi="http://sodipodi.sourceforge.net/DTD/sodipodi-0.dtd"
   xmlns:inkscape="http://www.inkscape.org/namespaces/inkscape"
   width="8.9698448mm"
   height="10.927216mm"
   viewBox="0 0 31.782915 38.71848"
   id="svg4257"
   version="1.1"
   inkscape:version="0.91 r13725"
   sodipodi:docname="iepc.svg">
  <defs
     id="defs4259" />
  <sodipodi:namedview
     id="base"
     pagecolor="#363636"
     bordercolor="#666666"
     borderopacity="1.0"
     inkscape:pageopacity="0"
     inkscape:pageshadow="2"
     inkscape:zoom="7.9195959"
     inkscape:cx="51.556498"
     inkscape:cy="11.644797"
     inkscape:document-units="px"
     inkscape:current-layer="layer1"
     showgrid="false"
     fit-margin-top="0"
     fit-margin-left="0"
     fit-margin-right="0"
     fit-margin-bottom="0"
     inkscape:window-width="1920"
     inkscape:window-height="1016"
     inkscape:window-x="0"
     inkscape:window-y="27"
     inkscape:window-maximized="1" />
  <metadata
     id="metadata4262">
    <rdf:RDF>
      <cc:Work
         rdf:about="">
        <dc:format>image/svg+xml</dc:format>
        <dc:type
           rdf:resource="http://purl.org/dc/dcmitype/StillImage" />
        <dc:title></dc:title>
      </cc:Work>
    </rdf:RDF>
  </metadata>
  <g
     inkscape:label="Layer 1"
     inkscape:groupmode="layer"
     id="layer1"
     transform="translate(-506.96569,-424.43153)">
    <g
       style="fill:#ffffff"
       id="g44-05-6-4-9-0-8-0"
       transform="matrix(0.45618368,0,0,-0.45618368,528.80775,456.28739)">
      <path
         inkscape:connector-curvature="0"
         d="m 0,0 c 0,0 1.815,2.394 -0.197,2.994 -1.702,0.513 -1.545,0.203 -2.251,0.672 -0.702,0.459 -1.409,0.226 -1.566,0.459 -0.159,0.235 0,3.419 0.313,3.959 2.272,0.542 5.955,1.625 6.267,2.016 0.316,0.387 0.226,0.578 0.789,0.93 0.855,0.547 3.447,1.321 4.462,1.398 1.023,0.075 2.744,-0.156 3.291,0.543 0.545,0.693 0.701,2.788 2.667,3.488 0.783,0.62 0.312,0.779 -0.236,1.397 -0.55,0.623 -2.585,2.482 -1.73,3.954 1.654,1.395 1.889,1.319 2.517,3.573 0.933,2.092 1.793,2.865 2.424,3.64 0.63,0.776 1.254,1.785 2.508,1.785 1.252,0 1.412,0.7 1.489,1.393 0.08,0.702 0.232,1.17 -0.388,2.096 -0.631,0.932 -1.255,2.095 -0.631,3.105 0.782,1.009 1.811,0.696 1.099,2.327 -0.235,1.238 -0.235,1.783 0.548,2.249 0.783,0.463 0.471,1.473 -1.016,1.24 -1.49,-0.233 -1.962,1.393 -2.583,1.863 -0.631,0.464 -1.573,1.086 -2.045,0 -0.472,-1.09 -0.31,-1.709 0.16,-2.947 0.464,-1.245 0.702,-2.253 0.074,-2.638 -0.621,-0.389 -22.332,-17.762 -27.661,-24.974 3.291,0.074 7.523,0 7.523,0 l 0,-1.865 -28.375,0 0,1.939 7.688,0 c 0,0 -5.486,6.67 -9.481,9.389 -2.903,-0.78 -5.883,-0.933 -5.883,-4.655 0.081,-2.328 -0.155,-2.951 -1.255,-3.257 -1.091,-0.314 -3.054,-0.932 -3.683,-0.855 -0.627,0.079 -2.19,-1.162 -2.508,-1.708 -0.309,-0.539 -0.388,-0.927 0.551,-1.622 0.94,-0.703 1.485,-1.398 1.485,-1.398 l 0.083,-3.572 c 0,0 0.784,-1.085 1.1,-1.547 0.308,-0.47 0.546,-1.01 0.7,-1.552 0.157,-0.542 0.315,-0.622 0.865,-1.164 0.548,-0.546 1.407,-2.405 1.879,-2.946 0.472,-0.543 1.02,-1.164 1.101,-1.63 0.08,-0.465 0.152,-0.23 0.787,-0.543 0.62,-0.312 1.092,-0.623 1.796,-2.636 0.701,-2.016 0.701,-2.249 1.492,-2.563 0.782,-0.308 1.56,-1.391 2.112,-1.237 l 0.549,0.149 c 0,0 -0.155,-1.316 0.155,-1.316 0.318,0 1.025,0.079 1.257,-0.151 0.232,-0.237 1.412,-1.167 1.805,-0.779 0.388,0.394 0.388,1.316 0.782,1.476 0.39,0.15 2.977,0.077 2.977,0.077 0,0 -0.468,0.155 0.162,0.544 0.623,0.388 0.937,0.695 1.248,1.005 0.315,0.314 1.096,0 1.176,-0.231 0.078,-0.23 0.548,-0.307 1.097,0.385 0.551,0.702 0.158,1.163 0.551,1.554 0.393,0.385 2.031,0.697 2.661,0.465 0.629,-0.229 2.276,-0.777 2.587,-0.618 0.316,0.153 0.316,0.772 0.316,0.772 0,0 3.056,-0.079 3.605,-0.463 0.546,-0.388 1.722,-1.55 1.644,-2.795 -0.082,-1.241 -0.471,-4.418 -0.154,-5.196 0.31,-0.775 0.47,-0.698 0.703,-0.929 0.235,-0.232 0.943,0 1.414,0.387 0.468,0.387 1.255,0.619 1.487,0.307 0.233,-0.307 0.544,-1.162 1.482,-0.463 0.947,0.698 2.358,1.164 2.829,1.241 0.236,0.856 0.236,1.396 0.236,1.396 0,0 1.801,1.55 2.265,1.628 0.476,0.079 2.829,-0.078 3.062,0.158 0.232,0.23 0.626,1.706 0.859,2.252 0.238,0.542 0.391,0.774 0.783,0.929 0.396,0.156 0.552,0.466 0.552,0.466 0,0 -0.628,1.628 -1.568,1.395 -0.785,0.233 -1.018,0.233 -1.018,0.233 0,0 -0.705,1.94 -0.785,2.403 -0.078,0.468 0,0.309 -0.396,0.93 -0.387,0.622 -0.7,1.476 -0.7,1.476 L 0,0 Z"
         style="fill:#ffffff;fill-opacity:1;fill-rule:nonzero;stroke:none"
         id="path46-7-2-9-9-63-2-2" />
    </g>
    <g
       style="fill:#ffffff"
       id="g252-8-7-1-8-2-49-4-5"
       transform="matrix(0.45618368,0,0,-0.45618368,522.29176,440.03849)">
      <path
         inkscape:connector-curvature="0"
         d="m 0,0 c 0.569,-0.223 2.275,-1.092 2.51,0.234 -0.081,1.859 -0.076,4.339 0.078,4.724 0.157,0.39 1.174,1.088 1.881,2.099 0.702,1.008 1.019,0.696 1.489,1.161 0.465,0.468 0.861,1.086 1.88,0.774 1.101,-0.075 1.334,0 1.334,0 0,0 -0.156,0.935 0.39,1.244 0.549,0.311 0.393,0.856 0.082,1.397 -0.316,0.542 -0.472,1.01 0.153,1.626 0.63,0.623 1.408,1.709 0.864,2.408 -0.55,0.697 -1.489,0.228 -1.887,0.228 -0.385,0 -0.781,-0.078 -0.385,0.548 0.385,0.618 0.862,1.319 -0.158,2.169 0,0 -1.1,0.079 -1.571,0.623 C 6.192,19.776 5.488,20.783 5.019,19.776 4.546,18.769 4.389,17.295 4.705,16.749 5.019,16.209 5.488,14.812 4.546,14.424 3.92,14.193 3.762,13.105 3.762,12.643 c 0,-0.468 -0.708,-0.157 -1.174,0.073 -0.472,0.237 -0.078,-0.073 -0.787,-0.073 -0.698,0 -0.467,-0.547 -0.857,0.233 -0.395,0.775 -0.781,1.624 -0.237,2.868 0.549,1.24 0.943,2.714 0.943,3.564 0,0.86 0.151,1.786 -0.943,2.174 -1.097,0.386 -1.801,-0.231 -1.801,-0.231 0,0 -0.236,-3.025 -0.548,-4.267 -0.315,-1.24 -0.942,-2.484 -0.942,-2.484 0,0 -0.317,4.269 -0.077,4.58 0.232,0.31 0.547,0.463 0.623,1.088 0.081,0.615 -0.155,0.926 0.16,1.238 0.313,0.309 0.937,0.387 1.018,2.096 0.077,1.704 -0.862,1.316 -2.116,1.239 -1.253,-0.078 -2.354,-0.153 -2.354,-0.153 0,0 0.158,-2.485 0.158,-2.873 0,-0.386 1.335,-1.63 1.411,-2.325 0.078,-0.699 -0.157,-0.778 -0.313,-1.244 -0.155,-0.462 -0.785,-1.315 -1.645,-1.315 -0.862,0 -1.331,-0.082 -2.824,-0.856 -1.957,-0.855 -2.503,-1.239 -2.503,-1.239 0,0 -0.627,-3.414 -0.238,-3.877 0.391,-0.467 3.759,-3.881 3.759,-4.344 0,-0.469 -0.86,-4.344 -1.097,-4.813 -0.234,-0.465 -0.074,-1.394 0.629,-1.783 0.706,-0.387 2.821,-1.861 2.901,-2.249 0.077,-0.386 0.154,-1.705 -0.392,-2.326 -0.551,-0.622 0.075,-1.009 -1.017,-0.93 -1.097,0.077 -2.355,-0.234 -2.509,-0.543 -0.162,-0.312 -0.471,-1.474 -0.082,-2.327 0.396,-0.853 0.316,-2.25 0.082,-2.871 -0.24,-0.62 -1.413,-3.643 -1.49,-4.029 -1.411,1.161 -2.276,1.936 -3.137,2.866 -0.86,0.932 -1.256,1.471 -3.131,1.784 -1.882,0.309 -2.198,0.076 -2.667,-0.077 -0.782,0.311 -0.939,0.854 -4.78,3.49 -3.84,2.637 -9.014,6.362 -9.014,6.362 0,0 2.667,10.393 12.463,21.174 9.796,10.781 21.001,13.893 22.259,13.969 2.582,-0.698 11.753,-5.439 19.592,-13.351 6.185,-6.203 8.151,-12.175 8.151,-12.175 0,0 -0.55,-0.776 -1.255,-1.086 C 27.27,7.29 26.961,6.978 26.564,6.359 26.176,5.738 25.155,4.42 24.609,4.034 24.059,3.645 22.808,2.792 22.022,3.099 21.239,3.409 18.419,4.651 17.631,4.804 16.85,4.958 15.595,4.958 14.89,3.953 c -0.702,-1.01 -0.312,-2.17 0.078,-2.481 0.391,-0.311 1.958,-1.01 1.958,-1.238 0,-0.234 -0.076,-0.855 -0.31,-1.246 -0.232,-0.387 -0.318,-0.542 -0.232,-0.93 0.074,-0.388 0.542,-1.316 0.151,-1.24 -0.393,0.079 -2.424,-0.31 -2.74,-1.006 -0.316,-0.699 -0.316,-1.09 -0.863,-1.398 -0.547,-0.311 -0.862,-0.234 -1.332,0.077 -0.467,0.308 -0.787,0.54 -1.257,0.54 -0.464,0 -0.781,-0.151 -0.781,-0.151 0,0 -0.077,-1.785 -0.077,-2.558 0,-0.778 0,-1.242 -0.711,-0.932 -0.705,0.308 -2.191,0.075 -2.896,0 -0.707,-0.08 -0.707,0.233 -1.41,0.465 -0.706,0.234 -0.548,0.234 -1.017,0.234 -0.469,0 -0.55,0.155 -1.335,0.618 -0.782,0.465 -0.86,0.236 -1.092,0.542 -0.238,0.31 0,0.622 -0.789,0.622 -0.783,0 -1.25,-0.156 -1.329,0.309 -0.082,0.466 0.39,1.317 0.624,2.562 C -0.233,-2.019 -0.39,0.157 0,0"
         style="fill:#ffffff;fill-opacity:1;fill-rule:nonzero;stroke:none"
         id="path254-1-8-6-6-8-8-0" />
    </g>
  </g>
</svg>
